<?xml version="1.0" encoding="utf-8"?>
<!-- Generator: Adobe Illustrator 25.3.0, SVG Export Plug-In . SVG Version: 6.00 Build 0)  -->
<svg version="1.1" id="Wings-HUD" xmlns="http://www.w3.org/2000/svg" xmlns:xlink="http://www.w3.org/1999/xlink" x="0px" y="0px"
	 viewBox="0 0 836.7 424.5" style="enable-background:new 0 0 836.7 424.5;" xml:space="preserve">
<style type="text/css">
	.st0{fill:#3A3A3A;}
	.st1{fill:#7F7F7F;}
</style>
<path id="Fondo" class="st0" d="M787.2,424.5H49.5C22.1,424.5,0,402.4,0,375.1V49.5C0,22.1,22.1,0,49.5,0h737.8
	c27.3,0,49.5,22.1,49.5,49.5v325.6C836.7,402.4,814.5,424.5,787.2,424.5z"/>
<g id="Wings">
	<path class="st1" d="M71.2,34.8c-4.4,1.9-5,4.9-3.8,17.6c2.7,28.5,10.7,54.2,23.4,75.2c7,11.5,10.6,16.2,20.4,26.5
		c13.4,14,30.8,27.9,46.3,36.8c4.1,2.4,7.3,4.5,7.1,4.7c-0.8,0.8-11.8-3.3-17.1-6.2c-6-3.4-9.2-3.3-12,0.3c-2.5,3.2-2.1,6.4,2,15
		C153,237,183.9,262,223.3,274c11.8,3.6,11.5,3.4,7.2,4.7c-2.8,0.8-7.4,1.1-17,0.9c-11.8-0.2-13.3-0.1-14.9,1.3
		c-2.2,2.2-2.9,5.4-1.8,8.3c1.2,3,13.9,16.2,21.9,22.7c26.3,21.3,57.3,32.6,86.1,31.5l10.5-0.4v3.4c0,9.7,5.5,21.9,13.4,29.9
		c9.3,9.3,20.1,13.8,33.2,13.8c13.4,0,24.1-4.5,33.7-14.1c14.2-14.2,17.9-36,11.3-66c-4.4-19.6-9.1-29.2-29.6-59.7
		c-21.4-31.9-30.3-50.1-39.3-80.1c-17.1-57.5-44.2-83.8-91.7-89.6c-4.8-0.5-18.2-0.8-33.6-0.7c-27,0.2-29.8-0.1-45.7-4
		c-27.9-7-62.3-22.6-85.8-39C76.9,33.9,74.5,33.4,71.2,34.8z"/>
	<path class="st1" d="M758.9,34.7c-1.2,0.7-6.5,3.9-11.8,7.3c-11,7-38.1,20.7-51.2,25.8c-12.6,4.7-25.5,8.3-38.6,10.8
		c-6.5,1.2-13.7,1.5-38.2,1.6c-28.1,0.1-30.9,0.2-39.4,1.9c-31.4,6.6-53.3,24-68.5,54.5c-5,10-8.9,20.3-13.5,35.9
		c-8.3,27.9-17.2,45.9-38.4,77.5c-21.2,31.7-26.2,42.2-30.7,64.2c-2.4,12.3-2.6,31-0.4,39.4c5.1,19.2,18.6,32.2,37.1,35.7
		c8,1.6,11.1,1.6,18.5,0c17.6-3.7,31.6-17,36.1-34.4c0.7-2.8,1.1-5.6,1.3-8.5V343l10,0.4c23.6,0.9,50-6.8,73-21.4
		c12.3-7.9,33.4-27.5,35.2-32.8c1.2-3.5-0.2-7.6-3.1-9.1c-2.1-1.1-3.7-1.2-10.2-0.4c-7.7,0.9-19.6,0-22.6-1.7
		c-1.5-0.8-2.4-0.4,9.7-4.1c39.7-12,70.6-37.2,86-70c3.8-8.1,4.1-11.3,1.7-14.4c-2.9-3.6-5.7-3.6-13.2,0.1
		c-6.7,3.4-15.2,6.6-15.9,5.8c-0.2-0.2,3-2.3,7.1-4.7c15.2-8.7,32.7-22.6,46-36.4c25.2-26.1,40-59.8,44-100.6
		c1.3-12.9,1.2-14-1.4-16.8C764.7,33.9,761.7,33.2,758.9,34.7z"/>
</g>
</svg>
